<?xml version="1.0" encoding="utf-8"?>
<!-- Generator: Adobe Illustrator 19.0.0, SVG Export Plug-In . SVG Version: 6.00 Build 0)  -->
<svg version="1.1" id="Layer_1" xmlns="http://www.w3.org/2000/svg" xmlns:xlink="http://www.w3.org/1999/xlink" x="0px" y="0px"
	 viewBox="-53 144 505 505" style="enable-background:new -53 144 505 505;" xml:space="preserve">
<style type="text/css">
	.st0{fill:#F5F5F5;}
</style>
<g>
	<path class="st0" d="M199.5,144C60,144-53,257-53,396.5S60,649,199.5,649S452,536,452,396.5S339,144,199.5,144z M324.7,485.7
		l-68.6,68.6H74.3V238.7h250.4L324.7,485.7L324.7,485.7z"/>
	<g>
		<circle class="st0" cx="199.5" cy="307.2" r="23.7"/>
		<path class="st0" d="M244.2,386.5c-0.6-24.2-20.3-43.7-44.7-43.7s-44.1,19.5-44.7,43.7H244.2z"/>
	</g>
	<g>
		<rect x="106.1" y="428.1" class="st0" width="186.8" height="10.3"/>
		<rect x="106.1" y="460.6" class="st0" width="186.8" height="10.3"/>
		<rect x="106.1" y="493.2" class="st0" width="114.1" height="10.3"/>
	</g>
</g>
</svg>
