<?xml version="1.0" encoding="utf-8"?>
<!-- Generator: Adobe Illustrator 19.0.0, SVG Export Plug-In . SVG Version: 6.00 Build 0)  -->
<svg version="1.1" id="Layer_1" xmlns="http://www.w3.org/2000/svg" xmlns:xlink="http://www.w3.org/1999/xlink" x="0px" y="0px"
	 viewBox="-49 141 512 512" style="enable-background:new -49 141 512 512;" xml:space="preserve">
<style type="text/css">
	.st0{fill:#F5F5F5;}
</style>
<path class="st0" d="M207,141C65.6,141-49,255.6-49,397S65.6,653,207,653s256-114.6,256-256S348.4,141,207,141z M132.6,528H70.3
	V340.4h62.3V528z M101.4,314.8H101c-20.9,0-34.5-14.4-34.5-32.4c0-18.4,13.9-32.4,35.3-32.4s34.5,14,34.9,32.4
	C136.7,300.4,123.2,314.8,101.4,314.8z M357.4,528h-62.3V427.7c0-25.2-9-42.4-31.6-42.4c-17.2,0-27.5,11.6-32,22.8
	c-1.6,4-2.1,9.6-2.1,15.2V528h-62.3c0,0,0.8-170,0-187.6h62.3V367c8.3-12.8,23.1-31,56.2-31c41,0,71.8,26.8,71.8,84.4V528z"/>
</svg>
