<?xml version="1.0" encoding="utf-8"?>
<!-- Generator: Adobe Illustrator 19.0.0, SVG Export Plug-In . SVG Version: 6.00 Build 0)  -->
<svg version="1.1" id="Layer_1" xmlns="http://www.w3.org/2000/svg" xmlns:xlink="http://www.w3.org/1999/xlink" x="0px" y="0px"
	 viewBox="944 -616 2500 2025" style="enable-background:new 944 -616 2500 2025;" xml:space="preserve">
<style type="text/css">
	.st0{fill:#F5F5F5;}
	.st1{fill:#3DDC84;}
</style>
<path class="st0" d="M1222.8,1119.3c-59.1,0-98.9,46.4-98.9,106.1c0,59.7,39.8,106.1,98.9,106.1s98.9-46.4,98.9-106.1
	C1321.2,1165.7,1281.4,1119.3,1222.8,1119.3 M1209.6,1053.6c47.5,0,87.3,24.3,106.1,50.8v-44.2h72.9v330.9h-56.3
	c-9.1,0-16.5-7.4-16.6-16.6v-27.6c-18.8,26.5-58,50.8-106.1,50.8c-90.6,0-159.6-77.3-159.6-171.8S1118.4,1053.6,1209.6,1053.6
	 M1471.4,1060.2h72.9v44.7c19.9-33.1,57.5-51.4,100.5-51.4c76.8,0,126.5,54.1,126.5,138.1v199.4h-55.8c-9.1,0-16.5-7.4-16.6-16.6
	v-170.7c0-52.5-26.5-84-69.1-84c-48.1,0-85.6,37.6-85.6,108.3v163h-55.8c-9.1,0-16.5-7.4-16.6-16.6L1471.4,1060.2z M2001.2,1119.3
	c-59.1,0-98.9,46.4-98.9,106.1s39.8,106.1,98.9,106.1s98.9-46.4,98.9-106.1S2060.3,1119.3,2001.2,1119.3 M1987.9,1053.6
	c47.5,0,87.3,24.3,106.1,50.8V894.5h72.9v496.6h-55.8c-9.1,0-16.5-7.4-16.6-16.6v-27.6c-18.8,26.5-58,50.8-106.1,50.8
	c-90.6,0-159.6-77.3-159.6-171.8C1828.9,1131.5,1897.4,1053.6,1987.9,1053.6 M2249.8,1060.2h72.9v59.1c13.1-37.1,48-62,87.3-62.4
	c9.5-0.2,18.9,0.8,28.2,2.8v74.6c-11.8-3.9-24.1-6-36.5-6.1c-41.4,0-79.5,35.4-79.5,101.1v161.3h-55.8c-9.1,0-16.5-7.4-16.6-16.6
	V1060.2z M2634.3,1329.8c58,0,99.4-45.9,99.4-104.4c0-59.1-40.9-104.4-99.4-104.4c-59.1,0-100,45.9-100,104.4
	C2534.8,1284.5,2575.2,1329.8,2634.3,1329.8 M2634.3,1397.7c-95-0.8-171.5-78.4-170.7-173.5c0.8-95,78.4-171.5,173.5-170.7
	c94.6,0.8,170.9,77.7,170.7,172.4c0.5,94.4-75.7,171.3-170.1,171.8C2636.5,1397.7,2635.4,1397.7,2634.3,1397.7 M2866.8,1060.2h72.9
	v330.9H2884c-9.1,0-16.5-7.4-16.6-16.6L2866.8,1060.2z M2903.3,987.8c-27-0.3-48.9-22.1-49.2-49.2c0.5-26.7,22.4-48.1,49.2-48.1
	c26.8,0,48.6,21.8,48.6,48.6C2951.9,966.1,2930.2,987.8,2903.3,987.8 M3172.3,1119.3c-59.1,0-98.9,46.4-98.9,106.1
	c0,59.7,39.8,106.1,98.9,106.1c59.1,0,98.9-46.4,98.9-106.1C3270.1,1165.7,3231.4,1119.3,3172.3,1119.3 M3159.1,1053.6
	c47.5,0,87.3,24.3,106.1,50.8V894.5h72.9v496.6h-55.8c-9.1,0-16.5-7.4-16.6-16.6v-27.6c-18.8,26.5-58,50.8-106.1,50.8
	c-90.6,0-159.6-77.3-159.6-171.8S3068.5,1053.6,3159.1,1053.6"/>
<path class="st1" d="M2754.7-215.9l190.6-329.8c10.7-19.1,4-43.2-15.1-53.9c-18.7-10.5-42.4-4.2-53.4,14.2L2684-251.8
	c-311.3-139.9-667.6-139.9-978.9,0l-192.8-333.7c-11.2-18.8-35.6-24.9-54.3-13.7c-18.4,11-24.7,34.7-14.2,53.4l190.6,329.8
	C1305.7-38,1082.5,292.9,1049.9,683.4h2287C3304.4,292.9,3080.6-38,2754.7-215.9L2754.7-215.9z M1667.5,357.5c-52.5,0-95-42.5-95-95
	s42.5-95,95-95c52.5,0,95,42.5,95,95c0,0,0,0,0,0C1762.6,315,1720,357.5,1667.5,357.5z M2720.5,357.5c-52.5,0-95-42.5-95-95
	s42.5-95,95-95c52.5,0,95,42.5,95,95S2772.9,357.5,2720.5,357.5L2720.5,357.5z"/>
</svg>
