<?xml version="1.0" encoding="utf-8"?>
<!-- Generator: Adobe Illustrator 19.0.0, SVG Export Plug-In . SVG Version: 6.00 Build 0)  -->
<svg version="1.1" id="Layer_1" xmlns="http://www.w3.org/2000/svg" xmlns:xlink="http://www.w3.org/1999/xlink" x="0px" y="0px"
	 viewBox="580 -853.8 1771 2499.8" style="enable-background:new 580 -853.8 1771 2499.8;" xml:space="preserve">
<style type="text/css">
	.st0{fill:#F5F5F5;}
	.st1{fill:#1572B6;}
	.st2{fill:#33A9DC;}
	.st3{fill:#FFFFFF;}
	.st4{fill:#EBEBEB;}
</style>
<path class="st0" d="M1967.8-761.3h-146.9l152.8,165.9v78.9h-314.8v-92.4h152.8l-152.8-165.9v-79h309L1967.8-761.3z M1596.4-761.3
	h-147.1l153,165.9v78.9h-314.9v-92.4h152.8l-152.8-165.9v-79h309V-761.3z M1228.6-757.5h-158.5v144.8h158.5v96.3H957.3v-337.4h271.3
	V-757.5z"/>
<path class="st1" d="M741.2,1445.3L580-362.4h1771L2189.6,1445l-725.2,201L741.2,1445.3z"/>
<path class="st2" d="M1465.5,1492.4l586-162.5l137.8-1544.5h-723.8V1492.4z"/>
<path class="st3" d="M1465.5,440.3h293.4l20.2-227h-313.6V-8.3h556l-5.3,59.5l-54.5,611h-496.2V440.3z"/>
<path class="st4" d="M1466.7,1016.1h-1l-246.9-66.7L1203,772.6H980.6l31.1,348.1l454.2,126.4h1.3v-231L1466.7,1016.1z"/>
<path class="st3" d="M1740.1,652.5l-26.7,296.7l-247.3,66.7v231l454.5-126l3.3-37.5l38.6-431h-222.4L1740.1,652.5z"/>
<path class="st4" d="M1466.3-8.3v221.7H930.9l-4.6-49.8L916.2,51.2l-5.3-59.5L1466.3-8.3z M1465.5,440.3V662h-244.1l-4.3-49.8
	L1207,499.8l-5.3-59.5L1465.5,440.3L1465.5,440.3z"/>
</svg>
