<?xml version="1.0" encoding="utf-8"?>
<!-- Generator: Adobe Illustrator 19.0.0, SVG Export Plug-In . SVG Version: 6.00 Build 0)  -->
<svg version="1.1" id="Layer_1" xmlns="http://www.w3.org/2000/svg" xmlns:xlink="http://www.w3.org/1999/xlink" x="0px" y="0px"
	 viewBox="944 -131 2500 1055" style="enable-background:new 944 -131 2500 1055;" xml:space="preserve">
<style type="text/css">
	.st0{fill:#F5F5F5;}
	.st1{fill:#DE4C36;}
</style>
<path class="st0" d="M2438,232.4c-54.7,0-95.4,26.8-95.4,91.4c0,48.7,26.8,82.5,92.4,82.5c55.6,0,93.4-32.8,93.4-84.5
	C2528.4,263.2,2494.6,232.4,2438,232.4L2438,232.4z M2328.7,688.5c-12.9,15.9-25.8,32.7-25.8,52.6c0,39.7,50.6,51.7,120.2,51.7
	c57.6,0,136.1-4,136.1-57.6c0-31.8-37.8-33.8-85.5-36.8L2328.7,688.5L2328.7,688.5z M2622.8,235.4c17.9,22.9,36.8,54.7,36.8,100.4
	c0,110.3-86.4,174.8-211.6,174.8c-31.8,0-60.6-4-78.5-8.9l-32.8,52.6l97.4,6c171.9,11,273.2,15.9,273.2,148
	c0,114.3-100.3,178.8-273.2,178.8c-179.8,0-248.4-45.7-248.4-124.2c0-44.7,19.9-68.5,54.6-101.3c-32.8-13.9-43.7-38.7-43.7-65.5
	c0-21.9,10.9-41.7,28.8-60.6c17.9-18.8,37.7-37.7,61.6-59.6c-48.7-23.8-85.4-75.5-85.4-149c0-114.2,75.5-192.7,227.5-192.7
	c42.7,0,68.6,3.9,91.4,9.9h193.8v84.4L2622.8,235.4L2622.8,235.4z M2889,54.9c-56.6,0-89.4-32.8-89.4-89.5
	c0-56.6,32.8-87.4,89.4-87.4c57.6,0,90.4,30.8,90.4,87.4C2979.4,22.1,2946.6,54.9,2889,54.9z M2760.8,651.9v-78.4l50.7-6.9
	c13.9-2,15.9-5,15.9-19.9V254.5c0-10.9-3-17.9-12.9-20.8l-53.6-18.9l10.9-80.4h205.7v412.3c0,15.9,1,17.9,15.9,19.9l50.7,6.9v78.4
	H2760.8z M3436.8,613.4c-42.7,20.8-105.3,39.7-162,39.7c-118.2,0-162.9-47.6-162.9-160V232.9c0-6,0-9.9-8-9.9h-69.5v-88.4
	c87.5-10,122.2-53.7,133.1-162h94.4v141.1c0,6.9,0,9.9,8,9.9H3410V223h-148v237.4c0,58.6,13.9,81.4,67.5,81.4
	c27.9,0,56.6-6.9,80.5-15.9L3436.8,613.4"/>
<path class="st1" d="M1964.8,352.7l-454.3-454.2c-26.2-26.2-68.6-26.2-94.7,0c0,0,0,0,0,0l-94.3,94.3l119.7,119.6
	c28.7-9.8,60.4-2.4,81.9,19.1c21.5,21.6,28.9,53.6,18.9,82.4l115.3,115.3c27.9-9.6,60.1-3.4,82.4,18.9c31.1,31.1,31.1,81.6,0,112.7
	c0,0,0,0,0,0c-31.1,31.1-81.6,31.2-112.8,0.1c-22.8-22.8-29.6-57-17.4-86.8l-107.5-107.5l0,283c7.8,3.9,14.9,8.9,21.1,15.1
	c31.1,31.1,31.1,81.6,0,112.8c0,0,0,0,0,0c-31.2,31.2-81.6,31.2-112.7,0c-31.1-31.1-31.2-81.6,0-112.8c7.5-7.5,16.4-13.4,26.1-17.4
	V261.7c-9.8-4-18.7-9.9-26.1-17.4c-23.6-23.6-29.3-58.2-17.2-87.2l-117.9-118L963.6,350.6c-26.2,26.2-26.2,68.6,0,94.8c0,0,0,0,0,0
	l454.3,454.2c26.2,26.2,68.6,26.2,94.8,0l452.1-452.1C1991,421.3,1991,378.9,1964.8,352.7"/>
</svg>
