<?xml version="1.0" encoding="utf-8"?>
<!-- Generator: Adobe Illustrator 19.0.0, SVG Export Plug-In . SVG Version: 6.00 Build 0)  -->
<svg version="1.1" id="Layer_1" xmlns="http://www.w3.org/2000/svg" xmlns:xlink="http://www.w3.org/1999/xlink" x="0px" y="0px"
	 viewBox="580 -854 1771 2500" style="enable-background:new 580 -854 1771 2500;" xml:space="preserve">
<style type="text/css">
	.st0{fill:#E44D26;}
	.st1{fill:#F16529;}
	.st2{fill:#EBEBEB;}
	.st3{fill:#F5F5F5;}
	.st4{fill:#FFFFFF;}
</style>
<path class="st0" d="M741.2,1445.2L580-362.6h1771l-161.3,1807.4l-725.2,201.1L741.2,1445.2z"/>
<path class="st1" d="M1465.5,1492.3l586-162.5l137.9-1544.5h-723.9L1465.5,1492.3L1465.5,1492.3z"/>
<path class="st2" d="M1465.5,455.7h-293.4l-20.3-227h313.6V7H909.5l5.3,59.5l54.5,611h496.1V455.7H1465.5z M1465.5,1031.5l-1,0.3
	l-246.9-66.7l-15.8-176.8H979.2l31.1,348.1l454.2,126.1l1-0.3V1031.5z"/>
<path class="st3" d="M744.8-853.8h112.7v111.3h103.1v-111.3h112.6v337.1H960.5v-112.9H857.4v112.9H744.8V-853.8z M1221.4-742h-99.2
	v-111.8h311.1V-742h-99.2v225.3h-112.7L1221.4-742L1221.4-742z M1482.6-853.8h117.5l72.3,118.4l72.2-118.4h117.5v337.1h-112.2
	v-167.1l-77.5,119.9h-1.9l-77.6-119.9v167.1h-110.2L1482.6-853.8L1482.6-853.8z M1918.2-853.8h112.7v225.7h158.5v111.4h-271.2
	V-853.8z"/>
<path class="st4" d="M1464.7,455.7v221.7h273L1712,964.9l-247.3,66.7v230.7l454.5-126l3.3-37.5l52.1-583.7l5.4-59.5h-59.7
	L1464.7,455.7z M1464.7,7v221.7h535.5l4.4-49.8l10.1-112.4L2020,7L1464.7,7z"/>
</svg>
