<?xml version="1.0" encoding="utf-8"?>
<!-- Generator: Adobe Illustrator 19.0.0, SVG Export Plug-In . SVG Version: 6.00 Build 0)  -->
<svg version="1.1" id="Layer_1" xmlns="http://www.w3.org/2000/svg" xmlns:xlink="http://www.w3.org/1999/xlink" x="0px" y="0px"
	 viewBox="0 0 600 600" style="enable-background:new 0 0 600 600;" xml:space="preserve">
<style type="text/css">
	.st0{fill:#699F63;}
	.st1{fill-rule:evenodd;clip-rule:evenodd;fill:#F5F5F5;}
	.st2{fill-rule:evenodd;clip-rule:evenodd;fill:#699F63;}
	.st3{clip-path:url(#XMLID_3_);}
	.st4{fill:none;}
	.st5{fill:url(#SVGID_1_);}
	.st6{fill:url(#SVGID_2_);}
	.st7{fill:url(#SVGID_3_);}
	.st8{fill:url(#SVGID_4_);}
	.st9{fill:url(#SVGID_5_);}
	.st10{fill:url(#SVGID_6_);}
</style>
<g>
	<path class="st0" d="M297.1,478.8c-1.9,0-3.9-0.5-5.6-1.5l-17.8-10.5c-2.7-1.5-1.4-2-0.5-2.3c3.5-1.2,4.3-1.5,8-3.7
		c0.4-0.2,0.9-0.1,1.3,0.1l13.6,8.1c0.5,0.3,1.2,0.3,1.6,0l53.2-30.7c0.5-0.3,0.8-0.9,0.8-1.4v-61.4c0-0.6-0.3-1.2-0.8-1.5
		l-53.2-30.7c-0.5-0.3-1.1-0.3-1.6,0l-53.2,30.7c-0.5,0.3-0.8,0.9-0.8,1.5v61.4c0,0.6,0.3,1.1,0.8,1.4l14.6,8.4
		c7.9,4,12.7-0.7,12.7-5.4v-60.6c0-0.9,0.7-1.5,1.5-1.5h6.7c0.8,0,1.5,0.7,1.5,1.5v60.6c0,10.6-5.7,16.6-15.8,16.6
		c-3.1,0-5.5,0-12.3-3.3l-13.9-8c-3.4-2-5.6-5.7-5.6-9.7v-61.4c0-4,2.1-7.7,5.6-9.7l53.2-30.7c3.4-1.9,7.8-1.9,11.2,0l53.2,30.7
		c3.4,2,5.6,5.7,5.6,9.7v61.4c0,4-2.1,7.7-5.6,9.7l-53.2,30.7C301,478.3,299.1,478.8,297.1,478.8z"/>
	<path class="st0" d="M313.5,436.6c-23.3,0-28.2-10.7-28.2-19.6c0-0.9,0.7-1.5,1.5-1.5h6.9c0.8,0,1.4,0.6,1.5,1.3
		c1,7,4.1,10.5,18.2,10.5c11.2,0,16-2.5,16-8.5c0-3.4-1.4-6-18.8-7.7c-14.6-1.4-23.6-4.7-23.6-16.3c0-10.7,9-17.1,24.2-17.1
		c17,0,25.5,5.9,26.5,18.6c0,0.4-0.1,0.9-0.4,1.2c-0.3,0.3-0.7,0.5-1.1,0.5h-6.9c-0.7,0-1.3-0.5-1.5-1.2c-1.7-7.4-5.7-9.7-16.6-9.7
		c-12.2,0-13.7,4.3-13.7,7.5c0,3.9,1.7,5,18.2,7.2c16.3,2.2,24.1,5.2,24.1,16.7C340.1,429.9,330.4,436.6,313.5,436.6z"/>
</g>
<g>
	<path class="st0" d="M390.2,372.2c0,5.6-4.6,10.3-10.3,10.3c-5.6,0-10.3-4.6-10.3-10.3c0-5.8,4.8-10.3,10.3-10.3
		C385.5,361.9,390.2,366.4,390.2,372.2z M371.4,372.1c0,4.8,3.9,8.6,8.6,8.6c4.8,0,8.6-3.9,8.6-8.6c0-4.8-3.9-8.6-8.6-8.6
		C375.3,363.6,371.4,367.3,371.4,372.1z M376.1,366.4h4c1.4,0,4,0,4,3c0,2.1-1.4,2.5-2.2,2.8c1.6,0.1,1.7,1.1,1.9,2.6
		c0.1,0.9,0.3,2.5,0.6,3H382c-0.1-0.5-0.4-3.5-0.4-3.6c-0.2-0.7-0.4-1-1.2-1h-2v4.6h-2.2V366.4z M378.3,371.5h1.8
		c1.5,0,1.7-1,1.7-1.6c0-1.6-1.1-1.6-1.7-1.6h-1.8V371.5z"/>
</g>
<path class="st1" d="M132.4,238.7c0-2.5-1.3-4.7-3.4-5.9l-56.4-32.5c-1-0.6-2-0.9-3.1-0.9c-0.1,0-0.5,0-0.6,0
	c-1.1,0-2.1,0.3-3.1,0.9L9.4,232.8C7.3,234,6,236.2,6,238.7l0.1,87.4c0,1.2,0.6,2.3,1.7,2.9c1,0.6,2.3,0.6,3.4,0l33.5-19.2
	c2.1-1.3,3.4-3.5,3.4-5.9v-40.8c0-2.4,1.3-4.7,3.4-5.9l14.3-8.2c1.1-0.6,2.2-0.9,3.4-0.9c1.2,0,2.4,0.3,3.4,0.9l14.3,8.2
	c2.1,1.2,3.4,3.5,3.4,5.9v40.8c0,2.4,1.3,4.7,3.4,5.9l33.5,19.2c1.1,0.6,2.4,0.6,3.4,0c1-0.6,1.7-1.7,1.7-2.9L132.4,238.7z"/>
<path class="st1" d="M403.7,118.5c-1.1-0.6-2.3-0.6-3.4,0c-1,0.6-1.7,1.7-1.7,2.9v86.5c0,0.9-0.5,1.6-1.2,2.1
	c-0.7,0.4-1.6,0.4-2.4,0L381,202c-2.1-1.2-4.7-1.2-6.8,0l-56.4,32.6c-2.1,1.2-3.4,3.5-3.4,5.9v65.1c0,2.4,1.3,4.7,3.4,5.9l56.4,32.6
	c2.1,1.2,4.7,1.2,6.8,0l56.4-32.6c2.1-1.2,3.4-3.5,3.4-5.9V143.2c0-2.5-1.3-4.7-3.5-5.9L403.7,118.5z M398.5,284.2
	c0,0.6-0.3,1.2-0.9,1.5l-19.4,11.2c-0.5,0.3-1.2,0.3-1.7,0l-19.4-11.2c-0.5-0.3-0.9-0.9-0.9-1.5v-22.4c0-0.6,0.3-1.2,0.9-1.5
	l19.4-11.2c0.5-0.3,1.2-0.3,1.7,0l19.4,11.2c0.5,0.3,0.9,0.9,0.9,1.5V284.2z"/>
<path class="st1" d="M591.6,261.2c2.1-1.2,3.4-3.5,3.4-5.9v-15.8c0-2.4-1.3-4.7-3.4-5.9l-56.1-32.5c-2.1-1.2-4.7-1.2-6.8,0
	l-56.4,32.6c-2.1,1.2-3.4,3.5-3.4,5.9v65.1c0,2.4,1.3,4.7,3.4,5.9l56,31.9c2.1,1.2,4.6,1.2,6.7,0l33.9-18.8c1.1-0.6,1.7-1.7,1.8-3
	c0-1.2-0.6-2.4-1.7-3l-56.8-32.6c-1.1-0.6-1.7-1.7-1.7-3v-20.4c0-1.2,0.6-2.3,1.7-3l17.7-10.2c1.1-0.6,2.3-0.6,3.4,0l17.7,10.2
	c1.1,0.6,1.7,1.7,1.7,3v16.1c0,1.2,0.7,2.3,1.7,3c1.1,0.6,2.4,0.6,3.4,0L591.6,261.2z"/>
<path class="st2" d="M531.3,258.2c0.4-0.2,0.9-0.2,1.3,0l10.8,6.2c0.4,0.2,0.7,0.7,0.7,1.1v12.5c0,0.5-0.2,0.9-0.7,1.1l-10.8,6.2
	c-0.4,0.2-0.9,0.2-1.3,0l-10.8-6.2c-0.4-0.2-0.7-0.7-0.7-1.1v-12.5c0-0.5,0.2-0.9,0.7-1.1L531.3,258.2z"/>
<g>
	<defs>
		<path id="XMLID_143_" d="M226.8,201.5c-2.1-1.2-4.7-1.2-6.8,0l-56.1,32.4c-2.1,1.2-3.4,3.4-3.4,5.9v64.8c0,2.4,1.3,4.7,3.4,5.9
			l56.1,32.4c2.1,1.2,4.7,1.2,6.8,0l56.1-32.4c2.1-1.2,3.4-3.4,3.4-5.9v-64.8c0-2.4-1.3-4.7-3.4-5.9L226.8,201.5z"/>
	</defs>
	<linearGradient id="XMLID_2_" gradientUnits="userSpaceOnUse" x1="246.1815" y1="225.5617" x2="195.4996" y2="328.9528">
		<stop  offset="0" style="stop-color:#41873F"/>
		<stop  offset="0.3288" style="stop-color:#418B3D"/>
		<stop  offset="0.6352" style="stop-color:#419637"/>
		<stop  offset="0.9319" style="stop-color:#3FA92D"/>
		<stop  offset="1" style="stop-color:#3FAE2A"/>
	</linearGradient>
	<use xlink:href="#XMLID_143_"  style="overflow:visible;fill-rule:evenodd;clip-rule:evenodd;fill:url(#XMLID_2_);"/>
	<clipPath id="XMLID_3_">
		<use xlink:href="#XMLID_143_"  style="overflow:visible;"/>
	</clipPath>
	<g class="st3">
		<path class="st4" d="M219.9,201.5l-38.7,32.4c-2.1,1.2,13.9,3.4,13.9,5.9v64.8c0,1.6-16.8,3.1-15.7,4.3l54.4-108.1
			C232,200.3,221.4,200.6,219.9,201.5z"/>
		<path class="st4" d="M225.3,343.4c0.5-0.2,1.1-0.4,1.6-0.7l57.9-32.4c2.1-1.2,5.3-3.4,5.3-5.9v-64.8c0-1.8-2.5-3.5-3.8-4.7
			L225.3,343.4z"/>
		<linearGradient id="SVGID_1_" gradientUnits="userSpaceOnUse" x1="214.8335" y1="279.6708" x2="357.0432" y2="174.5987">
			<stop  offset="0.1376" style="stop-color:#41873F"/>
			<stop  offset="0.4032" style="stop-color:#54A044"/>
			<stop  offset="0.7136" style="stop-color:#66B848"/>
			<stop  offset="0.9081" style="stop-color:#6CC04A"/>
		</linearGradient>
		<path class="st5" d="M283,233.8l-56.3-32.4c-0.6-0.3-1.1-0.6-1.8-0.7l-63.2,108.1c0.5,0.6,1.2,1.1,1.9,1.6l56.4,32.4
			c1.6,0.9,3.5,1.1,5.2,0.7L284.5,235C284,234.5,283.5,234.1,283,233.8z"/>
	</g>
	<g class="st3">
		<path class="st4" d="M290,304.5v-64.8c0-2.4-3.2-4.7-5.3-5.9l-57.1-32.4c-0.6-0.4-1.8-0.6-2.5-0.8L288.3,306
			C288.4,305.5,290,305,290,304.5z"/>
		<path class="st4" d="M181.1,233.8c-2.1,1.2,13.9,3.4,13.9,5.9v64.8c0,2.4-15.9,4.7-13.8,5.9l47.6,32.4c1.3,0.8-1.5,1,0,0.8
			l-53.8-110L181.1,233.8z"/>
		<linearGradient id="SVGID_2_" gradientUnits="userSpaceOnUse" x1="158.5189" y1="189.7717" x2="288.2258" y2="189.7717">
			<stop  offset="9.191646e-002" style="stop-color:#6CC04A"/>
			<stop  offset="0.2864" style="stop-color:#66B848"/>
			<stop  offset="0.5968" style="stop-color:#54A044"/>
			<stop  offset="0.8624" style="stop-color:#41873F"/>
		</linearGradient>
		<polygon class="st6" points="218.1,189.6 217.3,190 218.4,190 		"/>
		<linearGradient id="SVGID_3_" gradientUnits="userSpaceOnUse" x1="158.5189" y1="272.0789" x2="288.2258" y2="272.0789">
			<stop  offset="9.191646e-002" style="stop-color:#6CC04A"/>
			<stop  offset="0.2864" style="stop-color:#66B848"/>
			<stop  offset="0.5968" style="stop-color:#54A044"/>
			<stop  offset="0.8624" style="stop-color:#41873F"/>
		</linearGradient>
		<path class="st7" d="M283,310.4c1.6-0.9,2.9-2.5,3.3-4.3l-61.7-105.4c-1.6-0.3-3.3-0.1-4.8,0.8L164,233.6l60.4,110
			c0.9-0.1,1.7-0.4,2.5-0.8L283,310.4z"/>
		<linearGradient id="SVGID_4_" gradientUnits="userSpaceOnUse" x1="158.5189" y1="309.1077" x2="288.2258" y2="309.1077">
			<stop  offset="9.191646e-002" style="stop-color:#6CC04A"/>
			<stop  offset="0.2864" style="stop-color:#66B848"/>
			<stop  offset="0.5968" style="stop-color:#54A044"/>
			<stop  offset="0.8624" style="stop-color:#41873F"/>
		</linearGradient>
		<polygon class="st8" points="288.2,309.3 287.9,308.7 287.9,309.5 		"/>
		<linearGradient id="SVGID_5_" gradientUnits="userSpaceOnUse" x1="155.2565" y1="325.8437" x2="291.3903" y2="325.8437">
			<stop  offset="9.191646e-002" style="stop-color:#6CC04A"/>
			<stop  offset="0.2864" style="stop-color:#66B848"/>
			<stop  offset="0.5968" style="stop-color:#54A044"/>
			<stop  offset="0.8624" style="stop-color:#41873F"/>
		</linearGradient>
		<path class="st9" d="M283,310.4l-56.2,32.4c-0.8,0.4-1.6,0.7-2.5,0.8l2.7,2l63.9-36.1v-0.9l-3.1-2.6
			C287.4,307.8,284.6,309.4,283,310.4z"/>
		<linearGradient id="SVGID_6_" gradientUnits="userSpaceOnUse" x1="308.6956" y1="222.4964" x2="228.7006" y2="385.6862">
			<stop  offset="0" style="stop-color:#41873F"/>
			<stop  offset="0.3288" style="stop-color:#418B3D"/>
			<stop  offset="0.6352" style="stop-color:#419637"/>
			<stop  offset="0.9319" style="stop-color:#3FA92D"/>
			<stop  offset="1" style="stop-color:#3FAE2A"/>
		</linearGradient>
		<path class="st10" d="M283,310.4l-56.2,32.4c-0.8,0.4-1.6,0.7-2.5,0.8l2.7,2l63.9-36.1v-0.9l-3.1-2.6
			C287.4,307.8,284.6,309.4,283,310.4z"/>
	</g>
</g>
</svg>
